<svg width="120" height="120" viewBox="0 0 120 120" fill="none" xmlns="http://www.w3.org/2000/svg">
<path d="M33.9551 25.2052C31.7129 25.8204 29.9492 27.2696 28.9102 29.3341C28.1035 30.961 28.1445 29.4981 28.1445 55.1466C28.1445 81.2462 28.0762 79.3595 29.0606 81.2325C30.0586 83.1192 32.1777 84.7188 34.2695 85.1427C34.7481 85.2384 38.2481 85.293 44.7559 85.293H54.5176L54.6816 85.6075C54.7637 85.7716 55.1738 86.3595 55.584 86.92C58.5098 90.8438 62.8027 93.5919 67.6563 94.6583C69.0508 94.9591 72.9609 95.0821 74.4785 94.877C81.9434 93.8106 88.1641 88.7794 90.6934 81.7384C91.4727 79.5645 91.8555 77.3907 91.8555 74.9434C91.8555 70.8692 90.6797 67.0138 88.4238 63.6641C87.3711 62.1056 84.7051 59.3985 83.2012 58.3868C81.3281 57.1016 78.7715 55.9532 76.4473 55.3516L75.8594 55.2013V48.3106V41.42L74.7383 40.2169C70.2129 35.3907 60.3828 25.1505 60.2051 25.0821C60.082 25.0411 54.2715 25.0001 47.3125 25.0138C37.0586 25.0138 34.502 25.0548 33.9551 25.2052ZM57.9766 33.1622C58.0449 38.8087 58.0586 38.9727 58.9473 40.4766C59.7813 41.9122 61.5586 43.129 63.2676 43.4571C63.6641 43.5255 65.9883 43.5938 68.4219 43.5938H72.8516V49.1856V54.7638L71.1152 54.8458C69.0098 54.9415 67.4238 55.2149 65.6328 55.7755C63.3086 56.5274 60.7246 57.9083 59.0293 59.3302L58.3867 59.8634H48.8848H39.3828L38.959 60.2188C38.4395 60.6427 38.3027 61.2852 38.5762 61.9552C38.9727 62.8985 38.6992 62.8712 47.6133 62.8712H55.625L54.832 64.0743C54.4082 64.7306 53.8477 65.7149 53.5879 66.2618L53.1094 67.2462H46.4375C38.9316 67.2462 38.9727 67.2462 38.5899 68.1485C38.3027 68.8321 38.4395 69.461 38.959 69.8985L39.3828 70.254H45.7266C50.7168 70.254 52.0703 70.295 52.0703 70.4181C52.0703 70.5138 51.9746 71.1427 51.8652 71.8263C51.3731 74.8204 51.7695 79.086 52.7676 81.6153L53.0274 82.2989L43.9766 82.2579L34.9121 82.2169L34.1192 81.8477C33.1348 81.3829 32.5879 80.9317 32.0137 80.1251C31.0977 78.8536 31.1524 80.4532 31.1524 55.1192C31.1524 29.7579 31.0977 31.4942 32.041 30.127C32.5059 29.4434 33.1074 28.8966 33.75 28.5548C34.7207 28.0352 34.8848 28.0216 46.5606 28.0216L57.9219 28.0079L57.9766 33.1622ZM66.6445 36.211L70.7324 40.5177L70.1172 40.5587C69.7754 40.586 68.2168 40.586 66.6309 40.5587C64.2383 40.5177 63.6641 40.463 63.1719 40.2579C62.4609 39.9571 61.4219 38.8223 61.2305 38.1524C61.1621 37.8653 61.0938 36.0606 61.0938 34.0235V30.4005L61.832 31.1524C62.2285 31.5626 64.4024 33.8458 66.6445 36.211ZM74.6699 58.1681C79.8789 59.0704 84.4863 62.4747 86.8926 67.1915C87.6719 68.6954 88.3145 70.6231 88.5879 72.1681C88.8066 73.4532 88.8203 76.3106 88.6016 77.5821C87.2207 85.8946 80.0977 91.9923 71.7578 91.9923C64.334 91.9923 57.7988 87.1798 55.4883 80.0294C53.5606 74.0001 55.2695 67.2598 59.877 62.7755C61.3262 61.3673 62.5703 60.4923 64.4434 59.5489C65.4688 59.0431 67.4649 58.3868 68.6816 58.1681C70.1719 57.9083 73.166 57.8946 74.6699 58.1681Z" fill="#FF4C60"/>
<path d="M39.2324 52.7129C37.961 53.3418 38.3028 55.2969 39.7383 55.543C40.627 55.6797 54.5586 55.6387 55.1055 55.4883C56.1992 55.1739 56.5547 53.8614 55.7754 53L55.3789 52.5489L47.5313 52.5215C40.4219 52.4805 39.6563 52.5078 39.2324 52.7129Z" fill="#FF4C60"/>
<path d="M71.0469 67.7247C70.3496 68.1212 70.2539 68.504 70.2539 71.129V73.5216L67.6426 73.5626L65.0313 73.6036L64.7031 73.9864C64.5254 74.1915 64.334 74.5196 64.293 74.6974C64.1699 75.1622 64.3203 75.6407 64.7031 76.0919L65.0313 76.4747L67.6426 76.5157L70.2539 76.5567V78.9767C70.2539 81.5196 70.3086 81.752 70.9375 82.2442C71.252 82.504 72.3184 82.463 72.6602 82.1759C73.207 81.7384 73.2617 81.4376 73.2617 78.9493V76.5431H75.6543C78.2656 76.5431 78.6485 76.461 79.0039 75.8048C79.2363 75.3536 79.2363 74.7247 79.0039 74.2735C78.6485 73.6173 78.2656 73.5352 75.6543 73.5352H73.2617V71.0059V68.4766L72.8926 68.0665C72.4277 67.547 71.6211 67.3966 71.0469 67.7247Z" fill="#FF4C60"/>
<circle cx="60" cy="60" r="59" stroke="#FF4C60" stroke-width="2" stroke-dasharray="7 7"/>
</svg>
