<svg width="120" height="120" viewBox="0 0 120 120" fill="none" xmlns="http://www.w3.org/2000/svg">
<path d="M43.9629 29.5664C43.1426 29.8672 42.4043 30.4141 41.8848 31.125C41.0234 32.2871 40.9961 32.5196 40.9961 38.4805V43.8399L38.3711 43.8946C36.3203 43.9493 35.582 44.0176 35.0899 44.1954C34.1875 44.5235 33.1621 45.4942 32.6973 46.4375L32.3145 47.2168L32.2734 66.3575C32.2461 79.25 32.2871 85.7168 32.3828 86.168C32.8066 88.1641 34.4063 89.9004 36.334 90.4883C37.2227 90.7618 37.5234 90.7618 60.957 90.7344L84.6777 90.6934L85.3477 90.3653C86.25 89.9141 87.0156 89.1211 87.4668 88.1778L87.8223 87.4121V60.0684V32.7246L87.4668 31.9727C87.002 30.961 86.4277 30.3321 85.5391 29.8399L84.8145 29.4434L64.6484 29.416C47.9277 29.3887 44.4004 29.416 43.9629 29.5664ZM84.3223 32.711C84.4727 32.8477 84.6641 33.1895 84.7461 33.4629C84.9375 34.1602 84.9375 86.0039 84.7324 86.7012C84.6367 87.0567 84.4453 87.3028 84.1582 87.4805C83.7344 87.7539 83.2832 87.7539 63.5273 87.7539H43.334L43.6348 87.0977L43.9356 86.4551L44.0039 59.9317C44.0586 38.9727 44.1133 33.3399 44.25 33.1075C44.6875 32.3282 43.293 32.3828 64.5254 32.4102C83.4746 32.4512 84.0488 32.4649 84.3223 32.711ZM40.9961 66.1114C40.9961 79.2637 40.9551 85.3887 40.8457 85.7578C40.6543 86.4414 39.7246 87.3711 39 87.5899C38.1524 87.836 37.7012 87.795 36.8809 87.3848C36.334 87.0977 36.0469 86.8379 35.7324 86.3321L35.3223 85.6621V66.7266V47.8047L35.7734 47.4082L36.2109 47.0118H38.6035H40.9961V66.1114Z" fill="#FF4C60"/>
<path d="M53.2598 39.6289C51.8789 39.9844 50.6895 40.9551 50.1016 42.2129C49.8418 42.7871 49.8145 43.0742 49.8145 45.4395C49.8145 47.9961 49.8145 48.0508 50.1973 48.8027C50.6348 49.7051 51.5508 50.6074 52.4531 51.0176C53.041 51.291 53.3281 51.3184 55.625 51.3184C58.0586 51.3184 58.1816 51.3047 58.9062 50.9629C60 50.457 60.6152 49.8555 61.1211 48.8164L61.5723 47.9004V45.4395C61.5723 43.0742 61.5586 42.9512 61.2168 42.2266C60.7109 41.1465 60.1094 40.5176 59.0703 40.0117C58.1816 39.5742 58.1543 39.5742 55.9805 39.5332C54.7637 39.5195 53.5469 39.5605 53.2598 39.6289ZM58.0996 43.0332L58.4961 43.4297V45.4395V47.4492L58.0996 47.8457L57.7031 48.2422H55.7207C53.9434 48.2422 53.7109 48.2148 53.3965 47.9688C52.918 47.5996 52.7539 46.9297 52.7539 45.4395C52.7539 43.9492 52.918 43.2793 53.3965 42.9102C53.7109 42.6641 53.9434 42.6367 55.7207 42.6367H57.7031L58.0996 43.0332Z" fill="#FF4C60"/>
<path d="M65.0723 41.1875C64.6211 41.4336 64.3887 41.9121 64.375 42.6094C64.375 43.0879 64.457 43.2793 64.7715 43.6074L65.168 44.0039H71.6895C75.9004 44.0039 78.293 43.9492 78.4707 43.8672C78.8398 43.6621 79.1406 43.0195 79.1406 42.418C79.1406 42.0352 79.0312 41.8164 78.6758 41.4609L78.2109 40.9961H71.7988C66.7539 41.0098 65.332 41.0508 65.0723 41.1875Z" fill="#FF4C60"/>
<path d="M65.0723 47.0664C64.1289 47.586 64.1563 49.2813 65.127 49.7188C65.6739 49.9786 72.0586 49.9512 72.5645 49.6914C73.4942 49.1993 73.4942 47.5586 72.5645 47.0664C72.0313 46.793 65.5645 46.793 65.0723 47.0664Z" fill="#FF4C60"/>
<path d="M53.0273 54.3125C51.7969 54.6406 50.6758 55.6113 50.1016 56.8418C49.8418 57.416 49.8145 57.7031 49.8145 60.0684C49.8145 62.6387 49.8145 62.6797 50.1973 63.4453C50.6484 64.375 51.4277 65.0996 52.4668 65.5918C53.2051 65.9336 53.3145 65.9473 55.6934 65.9473C58.0723 65.9473 58.1816 65.9336 58.9199 65.5918C59.8086 65.168 60.6836 64.3613 61.0801 63.582C61.5176 62.7344 61.6816 61.3672 61.6133 59.3848C61.5586 57.9492 61.4766 57.457 61.2441 56.9238C60.6426 55.5703 59.7266 54.75 58.3594 54.3398C57.457 54.0664 53.9707 54.0527 53.0273 54.3125ZM58.0996 57.6621L58.4961 58.0586V60.0684V62.0781L58.0996 62.4746L57.7031 62.8711H55.6934H53.6836L53.3008 62.4883C52.8223 61.9961 52.6992 61.2715 52.7812 59.4121C52.8496 58.0723 52.8633 58.0312 53.2871 57.6484L53.7109 57.2656H55.707H57.7031L58.0996 57.6621Z" fill="#FF4C60"/>
<path d="M64.7578 56.0215C64.3613 56.377 64.3066 56.5 64.3066 57.1289C64.3066 57.7578 64.3613 57.8809 64.7578 58.2363L65.1953 58.6328H71.7715H78.3477L78.7441 58.2363C79.0859 57.8945 79.1406 57.7305 79.1406 57.1289C79.1406 56.5273 79.0859 56.3633 78.7441 56.0215L78.3477 55.625H71.7715H65.1953L64.7578 56.0215Z" fill="#FF4C60"/>
<path d="M64.8945 61.8183C64.2383 62.4199 64.2383 63.5273 64.8672 64.1152C65.209 64.4433 65.25 64.4433 68.6543 64.4843C72.3867 64.5253 72.7148 64.4843 73.0566 63.8144C73.3984 63.1582 73.3164 62.3652 72.8652 61.9004L72.4687 61.5039H68.8457C65.25 61.5039 65.2363 61.5039 64.8945 61.8183Z" fill="#FF4C60"/>
<path d="M56.8281 72.8105L54.2578 75.3672L53.3281 74.4785C52.1387 73.3164 51.8516 73.125 51.209 73.125C50.7852 73.125 50.5801 73.2207 50.2109 73.5898C49.8281 73.9726 49.7461 74.1504 49.7461 74.6425C49.7461 75.2031 49.8008 75.2715 51.6191 77.1172C53.6016 79.1132 53.9297 79.3047 54.7363 79.0039C55.3242 78.7851 61.3262 72.7558 61.5176 72.209C61.8457 71.1972 61.1211 70.2539 60.0273 70.2539H59.3984L56.8281 72.8105Z" fill="#FF4C60"/>
<path d="M65.0176 70.4043C64.6758 70.6094 64.375 71.2656 64.375 71.8398C64.375 72.2227 64.4844 72.4414 64.8398 72.7969L65.3047 73.2617H71.7441H78.1836L78.6211 72.8652C79.0176 72.5098 79.0723 72.3867 79.0723 71.7578C79.0723 71.1289 79.0176 71.0059 78.6211 70.6504L78.1836 70.2539H71.7168C67.5879 70.2539 65.1816 70.3086 65.0176 70.4043Z" fill="#FF4C60"/>
<path d="M65.3867 76.1465C64.7715 76.3242 64.4844 76.7207 64.4023 77.4727C64.3476 78.0742 64.3887 78.1973 64.7578 78.6074L65.168 79.0723H68.8183H72.4687L72.8789 78.6074C73.248 78.1973 73.2891 78.0742 73.2344 77.4727C73.1523 76.6934 72.8652 76.3242 72.1816 76.1328C71.5801 75.9688 65.9746 75.9688 65.3867 76.1465Z" fill="#FF4C60"/>
<circle cx="60" cy="60" r="59" stroke="#FF4C60" stroke-width="2" stroke-dasharray="7 7"/>
</svg>
