<svg width="120" height="120" viewBox="0 0 120 120" fill="none" xmlns="http://www.w3.org/2000/svg">
<path d="M57.0045 25.6984L56.9998 25.6991C53.3801 26.256 50.1448 27.9786 47.6083 30.6745L47.6081 30.6747C44.8196 33.6358 43.3765 37.0498 43.1771 41.1569L43.1771 41.1569C42.8987 46.8838 45.7093 52.3627 50.5663 55.5343L50.5671 55.5348C52.9595 57.1032 55.2444 57.8949 58.0296 58.1205C63.2045 58.5194 67.5972 56.9024 71.1548 53.2786C74.6329 49.734 76.183 45.38 75.7576 40.3545C75.3859 36.0565 73.4934 32.3627 70.2016 29.5218C67.5906 27.2839 65.2169 26.1779 61.9116 25.6999C60.3124 25.4734 58.4502 25.4618 57.0045 25.6984ZM72.6655 40.5503L72.6655 40.5508C73.0485 44.4655 71.8395 48.0535 69.1835 50.8941L69.1834 50.8942C67.5407 52.6502 65.1219 54.1414 63.0357 54.6738L63.0339 54.6742C59.9904 55.4387 56.3674 55.1188 53.7355 53.8173C50.1708 52.0562 47.5322 48.7637 46.5674 44.8761L46.5674 44.8759C46.374 44.0949 46.2962 42.8746 46.3118 41.6884C46.3273 40.5015 46.4373 39.2734 46.6516 38.4745C47.7471 34.3497 51.3133 30.5389 55.3064 29.2411L55.3075 29.2408C57.4747 28.5421 60.6743 28.443 62.8726 29.0137C65.1138 29.5849 66.8011 30.5768 68.6578 32.3629C71.0964 34.6744 72.3394 37.2466 72.6655 40.5503Z" fill="#FF4C60" stroke="white"/>
<path d="M44.5618 59.4172L44.5621 59.4172C45.3578 59.3334 45.7099 59.2973 45.9634 59.3003C46.1855 59.3029 46.3225 59.3348 46.7047 59.4303C46.863 59.4764 47.2033 59.6325 47.7236 59.9199C48.2348 60.2022 48.8818 60.5895 49.6281 61.0644L49.629 61.065C51.0567 61.9692 51.8155 62.4475 52.4462 62.7788C53.0898 63.1169 53.5998 63.3018 54.513 63.6289L54.5156 63.6298C56.5041 64.33 58.0368 64.6152 60.0137 64.6152C61.9267 64.6152 63.4748 64.3146 65.5163 63.5735C66.3681 63.2644 66.9074 63.0533 67.5234 62.7291C68.131 62.4093 68.8063 61.983 69.9369 61.2542M44.5618 59.4172L69.666 60.834M44.5618 59.4172C42.5522 59.6274 40.4704 60.3915 38.8289 61.4943C34.7547 64.2633 32.0163 70.5482 31.3776 79.1091C31.0244 83.9173 31.3179 86.202 32.5024 88.584L32.5024 88.584L32.5037 88.5866C33.1493 89.9037 34.3933 91.3737 35.6597 92.3141C36.6111 93.0078 38.2445 93.7492 39.685 94.1192L39.685 94.1192L39.6894 94.1204L40.8565 94.4316M44.5618 59.4172L40.8565 94.4316M69.9369 61.2542L69.666 60.834M69.9369 61.2542C69.9367 61.2544 69.9366 61.2545 69.9364 61.2546L69.666 60.834M69.9369 61.2542C70.9875 60.5789 71.7315 60.1271 72.2914 59.8298C72.8533 59.5314 73.2005 59.4049 73.4614 59.357L73.4673 59.3559L73.4673 59.3559C73.5802 59.3338 73.8078 59.3232 74.142 59.3366C74.4641 59.3496 74.8505 59.3832 75.2604 59.4333C76.0842 59.534 76.9714 59.6973 77.5924 59.8784L77.5933 59.8787C83.0777 61.468 86.6448 66.5612 88.067 75.3649L88.0672 75.3663C88.3908 77.3349 88.5702 79.5727 88.5989 81.5797C88.6279 83.6004 88.5031 85.3374 88.2412 86.3272L88.241 86.3281C87.21 90.2562 84.3347 93.0407 80.1772 94.1332L80.1789 94.1328L80.3027 94.6172M69.666 60.834C71.7715 59.4805 72.7012 58.9883 73.3711 58.8652C74.0684 58.7285 76.4199 59.0156 77.7324 59.3984C83.4883 61.0664 87.125 66.3984 88.5606 75.2852C89.2168 79.2773 89.2852 84.3359 88.7246 86.4551C87.6445 90.5703 84.6231 93.4824 80.3027 94.6172M80.3027 94.6172L80.1757 94.1336M80.3027 94.6172L79.0723 94.9316H59.9316L80.1757 94.1336M80.1757 94.1336L79.0094 94.4316H59.9316H40.8565M80.1757 94.1336L40.8565 94.4316M48.3311 63.8973L48.3311 63.8974C47.7002 63.4996 47.1162 63.1389 46.6821 62.877C46.4654 62.7464 46.2837 62.6389 46.1512 62.5633C46.0856 62.5259 46.0278 62.4938 45.9822 62.4701C45.9601 62.4587 45.9344 62.4458 45.9091 62.4346C45.8969 62.4292 45.8773 62.421 45.8541 62.4131L45.853 62.4127C45.842 62.4089 45.773 62.3848 45.6856 62.3848H45.624L45.5742 62.3972C45.5741 62.3969 45.556 62.4 45.5054 62.4069C45.4487 62.4147 45.3717 62.4247 45.2784 62.4367C45.2496 62.4404 45.2193 62.4443 45.1879 62.4483C45.0172 62.4702 44.8098 62.4967 44.595 62.5257C41.2858 62.9491 38.771 65.0013 36.9542 68.6063L48.3311 63.8973ZM48.3311 63.8973L48.3351 63.8999M48.3311 63.8973L48.3351 63.8999M48.3351 63.8999C50.8789 65.5371 51.9203 66.049 54.1262 66.7709L54.1265 66.771M48.3351 63.8999L54.1265 66.771M54.1265 66.771C59.8457 68.6463 65.6904 67.7517 71.237 64.1213C71.2874 64.0881 71.337 64.0555 71.3856 64.0235C72.5435 63.2617 73.1868 62.8385 73.6619 62.6378C74.2135 62.4048 74.5863 62.4525 75.0826 62.516C75.107 62.5191 75.1316 62.5223 75.1565 62.5254L75.1566 62.5255M54.1265 66.771L75.1566 62.5255M75.1566 62.5255C77.7793 62.8578 79.9158 64.1333 81.5535 66.3378C83.1792 68.5263 84.3027 71.6137 84.9658 75.5717L84.966 75.5728M75.1566 62.5255L84.966 75.5728M84.966 75.5728C85.2367 77.211 85.4126 79.1638 85.4765 80.922C85.5398 82.6656 85.4951 84.2707 85.304 85.1897L85.3039 85.1902M84.966 75.5728L85.3039 85.1902M85.3039 85.1902C84.6893 88.1313 82.6852 90.2107 79.6736 91.065L79.6734 91.065M85.3039 85.1902L79.6734 91.065M79.6734 91.065C79.186 91.2031 78.6369 91.2619 76.0724 91.2942C73.4828 91.3267 68.7823 91.3301 59.9316 91.3301C51.0605 91.3301 46.3634 91.3267 43.7789 91.2942C41.2169 91.2619 40.6785 91.2028 40.1803 91.0662L40.1803 91.0662M79.6734 91.065L40.1803 91.0662M40.1803 91.0662L40.1769 91.0652M40.1803 91.0662L40.1769 91.0652M40.1769 91.0652C38.0225 90.458 36.1336 88.9801 35.2423 87.1533M40.1769 91.0652L35.2423 87.1533M35.2423 87.1533C34.477 85.5931 34.3021 84.2768 34.4124 81.3108C34.5087 78.3257 34.6475 76.9169 35.1321 74.4658C35.4929 72.552 36.3379 69.8248 36.9541 68.6067L35.2423 87.1533Z" fill="#FF4C60" stroke="white"/>
<circle cx="60" cy="60" r="59" stroke="#FF4C60" stroke-width="2" stroke-dasharray="7 7"/>
</svg>
