<svg width="120" height="120" viewBox="0 0 120 120" fill="none" xmlns="http://www.w3.org/2000/svg">
<path d="M33.7227 25.2597C31.6445 25.9297 30.0176 27.6797 29.4297 29.8535C29.2793 30.4004 29.2383 32.9433 29.2383 42.7187C29.2383 54.4355 29.252 54.9277 29.498 55.2285C29.8398 55.6523 30.6328 55.666 31.0566 55.2422L31.3574 54.9277L31.4258 42.5957L31.4941 30.2636L31.8633 29.58C32.3418 28.664 33.0938 27.9668 34.0918 27.5019L34.9121 27.1191L46.6016 27.0781C53.0273 27.0508 58.6191 27.0781 59.0156 27.1191L59.7266 27.2011V30.2363C59.7266 33.5859 59.7676 33.791 60.5332 33.955C60.8613 34.0234 61.6406 33.791 61.8047 33.5722C61.8184 33.5586 61.8594 32.4785 61.9004 31.1797L61.9824 28.8281L69.0234 35.8691L76.0645 42.9101H70.0078C64.3203 42.9101 63.9238 42.8965 63.4453 42.6504C62.2148 42.0215 61.9141 41.3105 61.9141 39.0136C61.9141 37.373 61.9004 37.2773 61.5723 36.9629C61.1348 36.5117 60.4375 36.498 60.0137 36.9492C59.7129 37.2636 59.6992 37.3457 59.7539 39.4511C59.7949 41.3105 59.8359 41.6933 60.0957 42.2539C60.5059 43.1562 61.5313 44.209 62.4473 44.6465L63.2129 45.0293L70.3223 45.0703C75.709 45.0976 77.4453 45.1523 77.5273 45.2754C77.582 45.3711 77.6367 50.0605 77.6367 55.6933V65.9609L76.3789 65.9062C74.793 65.8379 73.877 66.1386 72.8516 67.0683C71.6484 68.1484 71.1016 69.7343 71.3613 71.3886C71.5527 72.5508 72.0039 73.33 73.1934 74.4922L74.2324 75.5175L71.0606 75.5859C67.9434 75.6543 67.9023 75.6543 67.6426 75.9824C67.3008 76.4062 67.3008 77.1445 67.6563 77.5C67.916 77.7597 68.1074 77.7734 72.6875 77.7734H77.459L77.7461 77.459C77.9375 77.2675 78.0469 76.9668 78.0469 76.6797C78.0469 76.2695 77.8145 75.9824 75.9414 74.0957C74.793 72.9199 73.7676 71.8125 73.6719 71.6347C73.4121 71.1289 73.4531 70.1035 73.7539 69.5019C74.1641 68.6816 74.8887 68.1758 75.7773 68.0937C77.1445 67.9843 77.1035 67.9433 82.8047 73.5898C86.3867 77.1308 88.1504 78.9765 88.3145 79.3457C88.6426 80.0429 88.6426 80.8359 88.3145 81.5332C87.9863 82.2715 77.8281 92.334 77.1309 92.6347C75.668 93.2363 74.041 92.4707 73.6035 90.9668C73.4805 90.584 73.4121 90.1738 73.4531 90.0644C73.4805 89.955 73.5488 89.6953 73.6035 89.4629C73.6582 89.1894 74.3691 88.3691 75.8731 86.8515C77.8418 84.8554 78.0469 84.6093 78.0469 84.1718C78.0469 83.8574 77.9375 83.5976 77.7324 83.4062L77.418 83.1191L66.9043 83.0781C55.1875 83.0371 55.9941 83.1054 55.1055 82.0937C54.7363 81.6699 54.3945 80.8769 54.3945 80.4394C54.3945 80.0019 54.7363 79.209 55.1055 78.7851C55.9258 77.8554 55.9531 77.8554 60.3008 77.7734C63.7871 77.7187 64.252 77.6777 64.4707 77.4726C64.8125 77.1308 64.7715 76.3379 64.4023 75.955C64.1016 75.6679 64.0059 75.6543 60.6426 75.6133C55.7891 75.5586 54.8594 75.7636 53.4922 77.2675C52.6445 78.1836 52.2754 79.1543 52.2754 80.4394C52.2754 81.7246 52.6445 82.6953 53.4922 83.6113C54.2715 84.4726 55.1055 84.9375 56.2402 85.1425C56.7598 85.2382 60.0273 85.2929 65.6602 85.2929H74.2734L73.1113 86.4824C72.3457 87.2754 71.8535 87.9043 71.6758 88.3281L71.416 88.9843H59.9043H48.3926L48.1191 89.3398C47.75 89.8047 47.75 90.2148 48.1191 90.6797L48.3926 91.0351H59.8633H71.3203L71.416 91.4863C71.7031 92.7851 72.9746 94.2207 74.3281 94.7265C74.9707 94.9726 75.3125 95.0136 76.3379 94.9726C78.3477 94.8769 78.293 94.9179 84.4453 88.7929C90.7481 82.5175 90.6934 82.5996 90.6934 80.3711C90.6934 78.3203 90.7481 78.4023 84.8691 72.5097L79.8242 67.4511V56.4179C79.8242 48.7754 79.7832 45.166 79.6738 44.6601C79.332 43.0605 79.3047 43.0332 70.5547 34.2695C63.7871 27.4883 62.1191 25.8886 61.4492 25.5195L60.6152 25.0683L47.5586 25.041C35.1992 25.0136 34.4609 25.0273 33.7227 25.2597Z" fill="#FF4C60"/>
<path d="M37.3867 44.7012C37.1133 44.9199 37.0312 45.0977 37.0312 45.5078C37.0312 45.918 37.1133 46.0957 37.3867 46.3145C37.7422 46.6016 37.8516 46.6016 46.5332 46.6016C55.2148 46.6016 55.3242 46.6016 55.6797 46.3145C56.1855 45.918 56.1855 45.0977 55.6797 44.7012C55.3242 44.4141 55.2148 44.4141 46.5332 44.4141C37.8516 44.4141 37.7422 44.4141 37.3867 44.7012Z" fill="#FF4C60"/>
<path d="M37.1133 52.9043C36.8398 53.123 36.7578 53.3008 36.7578 53.7109C36.7578 54.1211 36.8398 54.2988 37.1133 54.5176C37.4824 54.8047 37.4961 54.8047 53.1504 54.8047C65.7832 54.791 68.8594 54.7637 69.0508 54.6133C69.6113 54.1895 69.6113 53.2324 69.0508 52.8086C68.8594 52.6582 65.7832 52.6309 53.1504 52.6172C37.4961 52.6172 37.4824 52.6172 37.1133 52.9043Z" fill="#FF4C60"/>
<path d="M29.5117 58.4961C29.2383 58.7695 29.2383 58.9472 29.2383 72.1269C29.2383 82.914 29.2793 85.6347 29.4297 86.1816C30.0176 88.3828 31.6582 90.1191 33.7637 90.7754C34.5156 91.0078 35.0762 91.0351 39.6426 91.0351C44.6465 91.0351 44.6738 91.0351 44.9609 90.7344C45.2891 90.3789 45.3164 89.7226 45.0156 89.3262C44.8242 89.0664 44.6055 89.0527 39.8613 88.9844L34.9121 88.916L34.0645 88.5195C33.1211 88.0957 32.3145 87.3164 31.8086 86.3594L31.4941 85.7715L31.4258 72.291C31.3574 59.2617 31.3438 58.7832 31.0977 58.5097C30.7422 58.1269 29.8945 58.1133 29.5117 58.4961Z" fill="#FF4C60"/>
<path d="M37.1133 61.1074C36.8398 61.3262 36.7578 61.5039 36.7578 61.914C36.7578 62.3242 36.8398 62.5019 37.1133 62.7207C37.4824 63.0078 37.4961 63.0078 53.123 63.0078C62.8711 63.0078 68.8594 62.9531 69.0098 62.8711C69.1465 62.8027 69.3379 62.5566 69.4336 62.3242C69.6387 61.8457 69.4336 61.1758 69.0098 60.957C68.8594 60.875 62.8711 60.8203 53.123 60.8203C37.4961 60.8203 37.4824 60.8203 37.1133 61.1074Z" fill="#FF4C60"/>
<path d="M37.3867 69.3105C37.1133 69.5293 37.0312 69.707 37.0312 70.1172C37.0312 70.5273 37.1133 70.7051 37.3867 70.9238C37.7559 71.2109 37.8105 71.2109 49.9512 71.2109C62.0918 71.2109 62.1465 71.2109 62.5156 70.9238C63.0215 70.5273 63.0215 69.707 62.5156 69.3105C62.1465 69.0234 62.0918 69.0234 49.9512 69.0234C37.8105 69.0234 37.7559 69.0234 37.3867 69.3105Z" fill="#FF4C60"/>
<circle cx="60" cy="60" r="59" stroke="#FF4C60" stroke-width="2" stroke-dasharray="7 7"/>
</svg>
