<svg width="60" height="60" viewBox="0 0 60 60" fill="none" xmlns="http://www.w3.org/2000/svg">
<path d="M4.57031 32.4023V56.6016H2.75391H0.9375V57.5977V58.5938H29.5313H58.125V57.5977V56.6016H56.8945H55.6641L55.6875 54.6562L55.7227 52.7109L56.3438 52.4766C57.1758 52.1602 58.2539 51.1523 58.6641 50.2969C59.2852 48.9961 59.168 47.1211 58.3711 45.9492C58.0781 45.4922 58.043 45.3867 58.1484 45.0117C58.4414 43.9688 57.9141 42.4219 57 41.6133C56.2734 40.9688 55.5117 40.7344 54.3867 40.8047C53.2852 40.875 52.7227 41.1445 51.9961 41.9531C51.2813 42.75 51.0469 43.4648 51.1172 44.6367C51.1758 45.4219 51.1523 45.5625 50.9063 45.9375C50.0156 47.2852 49.9688 49.0195 50.7773 50.543C51.2813 51.5156 52.3008 52.3125 53.4727 52.6641C53.6484 52.7227 53.6719 52.9219 53.6719 54.7266V56.7188H51.6797H49.6875L49.6641 37.2422L49.6289 17.7773L37.9688 13.0078L26.3086 8.22656L26.2734 12.6211C26.25 16.0547 26.2148 17.0039 26.0977 16.957C26.0273 16.9336 21.2695 14.9883 15.5273 12.6562C9.78516 10.3242 4.98047 8.36719 4.83984 8.30859L4.57031 8.20312V32.4023ZM40.0781 16.0312L47.7539 19.1602L47.7891 36.0703L47.8125 52.9688H37.9688H28.125V32.0625V11.1562L30.2695 12.0234C31.4414 12.5039 35.8594 14.3086 40.0781 16.0312ZM10.9336 12.9609C13.2656 13.9102 15.2461 14.707 15.3281 14.7305C15.4336 14.7773 15.4688 18.3516 15.4688 32.0625V49.3359H11.0156H6.5625V30.293C6.5625 19.8164 6.59766 11.25 6.63281 11.25C6.66797 11.25 8.60156 12.0234 10.9336 12.9609ZM25.3711 18.8672L26.1914 19.1953L26.2266 20.5547L26.2617 21.9141H24.7266H23.2031V22.9102V23.9062H24.7266H26.25V26.1914V28.4766H24.7266H23.2031V29.4727V30.4688H24.7266H26.25V32.6953V34.9219H24.7266H23.2031V35.918V36.9141H24.7266H26.25V39.6094V42.3047H24.7266H23.2031V43.3008V44.2969H24.7266H26.25V46.8164V49.3359H21.7969H17.3438V48.6914V48.0469H18.75H20.1563V47.0508V46.0547H18.75H17.3438V43.5938V41.1328H18.75H20.1563V40.1367V39.1406H18.75H17.3438V36.7383V34.3359H18.75H20.1563V33.3398V32.3438H18.75H17.3438V29.9414V27.5391H18.75H20.1563V26.543V25.5469H18.75H17.3438V23.0859V20.625H18.75H20.1563V19.6875V18.75H18.75H17.3438V17.1797V15.5977L20.9531 17.0625C22.9336 17.8711 24.9258 18.6797 25.3711 18.8672ZM55.2422 42.9375C55.7227 43.1367 56.1094 43.6172 56.2031 44.1445C56.2617 44.4609 56.2031 44.6953 55.9102 45.2695L55.5469 45.9727L56.1211 46.5117C56.4492 46.8164 56.7891 47.25 56.8945 47.4844C57.2461 48.3398 57.0586 49.3945 56.4492 50.0625C55.3008 51.3047 53.2969 51.0469 52.5234 49.5469C51.9609 48.457 52.2305 47.3203 53.2617 46.4414L53.8008 45.9727L53.4258 45.2812C53.1094 44.707 53.0625 44.5195 53.1328 44.168C53.2266 43.6289 53.6016 43.1484 54.0703 42.9375C54.5391 42.7383 54.7617 42.7383 55.2422 42.9375ZM13.4766 53.9062V56.6016H12.4805H11.4844V53.9766V51.3398L12.1055 51.293C12.4336 51.2695 12.8906 51.2461 13.1016 51.2344L13.4766 51.2109V53.9062ZM17.3438 53.9062V56.6016H16.3477H15.3516V55.5703C15.3516 55.0078 15.3867 53.8008 15.4336 52.875L15.5039 51.2109H16.4297H17.3438V53.9062ZM21.2109 53.9062V56.6016H20.2734H19.3359V53.9062V51.2109H20.2734H21.2109V53.9062ZM9.49219 54.0234V56.7188H8.02734H6.5625V54.0234V51.3281H8.02734H9.49219V54.0234ZM26.25 54.0234V56.7188H24.7266H23.2031V54.0234V51.3281H24.7266H26.25V54.0234ZM47.6953 55.8398V56.7188H37.9102H28.125V55.8398V54.9609H37.9102H47.6953V55.8398Z" fill="#FF4C60"/>
<path d="M31.4062 25.1367V26.1328H33.1641H34.9219V25.1367V24.1406H33.1641H31.4062V25.1367Z" fill="#FF4C60"/>
<path d="M41.0156 25.1367V26.1328H42.7148H44.4141V25.1367V24.1406H42.7148H41.0156V25.1367Z" fill="#FF4C60"/>
<path d="M31.4062 29.4727V30.4688H33.1641H34.9219V29.4727V28.4766H33.1641H31.4062V29.4727Z" fill="#FF4C60"/>
<path d="M41.0156 29.4727V30.4688H42.7148H44.4141V29.4727V28.4766H42.7148H41.0156V29.4727Z" fill="#FF4C60"/>
<path d="M31.4062 33.6914V34.6875H33.1641H34.9219V33.6914V32.6953H33.1641H31.4062V33.6914Z" fill="#FF4C60"/>
<path d="M41.0156 33.6914V34.6875H42.7148H44.4141V33.6914V32.6953H42.7148H41.0156V33.6914Z" fill="#FF4C60"/>
<path d="M31.4062 38.0273V39.0234H33.1641H34.9219V38.0273V37.0312H33.1641H31.4062V38.0273Z" fill="#FF4C60"/>
<path d="M41.0156 38.0273V39.0234H42.7148H44.4141V38.0273V37.0312H42.7148H41.0156V38.0273Z" fill="#FF4C60"/>
<path d="M31.4062 42.2461V43.2422H33.1641H34.9219V42.2461V41.25H33.1641H31.4062V42.2461Z" fill="#FF4C60"/>
<path d="M41.0156 42.2461V43.2422H42.7148H44.4141V42.2461V41.25H42.7148H41.0156V42.2461Z" fill="#FF4C60"/>
<path d="M31.4062 46.582V47.5781H33.1641H34.9219V46.582V45.5859H33.1641H31.4062V46.582Z" fill="#FF4C60"/>
<path d="M41.0156 46.582V47.5781H42.7148H44.4141V46.582V45.5859H42.7148H41.0156V46.582Z" fill="#FF4C60"/>
<path d="M8.32031 25.1367V26.1328H10.0195H11.7188V25.1367V24.1406H10.0195H8.32031V25.1367Z" fill="#FF4C60"/>
<path d="M8.32031 29.4727V30.4688H10.0195H11.7188V29.4727V28.4766H10.0195H8.32031V29.4727Z" fill="#FF4C60"/>
<path d="M8.32031 33.6914V34.6875H10.0195H11.7188V33.6914V32.6953H10.0195H8.32031V33.6914Z" fill="#FF4C60"/>
<path d="M8.32031 38.0273V39.0234H10.0195H11.7188V38.0273V37.0312H10.0195H8.32031V38.0273Z" fill="#FF4C60"/>
<path d="M8.32031 42.2461V43.2422H10.0195H11.7188V42.2461V41.25H10.0195H8.32031V42.2461Z" fill="#FF4C60"/>
<path d="M8.32031 46.582V47.5781H10.0195H11.7188V46.582V45.5859H10.0195H8.32031V46.582Z" fill="#FF4C60"/>
</svg>
