<svg width="60" height="60" viewBox="0 0 60 60" fill="none" xmlns="http://www.w3.org/2000/svg">
<g clip-path="url(#clip0_0_2387)">
<path d="M29.3086 5.4608C29.0742 5.75377 29.0625 5.92955 29.0625 7.93346C29.0625 9.11705 29.1094 10.1835 29.1797 10.3006C29.3672 10.6639 29.9414 10.8397 30.3516 10.6639C30.5508 10.5819 30.7617 10.4178 30.8203 10.3006C30.8906 10.1835 30.9375 9.11705 30.9375 7.93346C30.9375 5.92955 30.9258 5.75377 30.6914 5.4608C30.5039 5.22643 30.3516 5.15612 30 5.15612C29.6484 5.15612 29.4961 5.22643 29.3086 5.4608Z" fill="#FF4C60"/>
<path d="M23.6953 9.1756C23.5312 9.33966 23.4375 9.59747 23.4375 9.83185C23.4375 10.1717 23.5898 10.3826 24.5039 11.3201C25.0898 11.9178 25.7227 12.4686 25.9102 12.5389C26.5312 12.8084 27.1875 12.3045 27.1875 11.5779C27.1875 11.4256 26.7422 10.8748 25.9922 10.1248C24.9141 9.02325 24.7617 8.90606 24.375 8.90606C24.082 8.90606 23.8711 8.9881 23.6953 9.1756Z" fill="#FF4C60"/>
<path d="M34.0078 10.1248C33.0352 11.1092 32.8125 11.4021 32.8125 11.6834C32.8125 12.0818 33.1641 12.5037 33.5625 12.6092C33.9844 12.7146 34.418 12.4217 35.543 11.2732C36.4219 10.3709 36.5625 10.1717 36.5625 9.8201C36.5625 9.29276 36.1641 8.90604 35.6133 8.90604C35.25 8.90604 35.0742 9.03495 34.0078 10.1248Z" fill="#FF4C60"/>
<path d="M4.39453 11.0038C3.82032 11.2733 3.23438 11.871 3 12.4452C2.70703 13.1366 2.75391 14.1913 3.10547 14.8827C3.39844 15.4569 4.19532 16.1717 4.53516 16.1717C4.65235 16.1717 4.6875 16.4296 4.6875 17.285C4.6875 18.3514 4.67578 18.41 4.40625 18.5155C3.94922 18.6913 3.25782 19.3592 3.03516 19.8631C2.85938 20.2381 2.8125 20.6366 2.8125 21.9608C2.8125 23.5428 2.80078 23.5897 2.4961 23.953C2.03907 24.4921 1.875 24.9842 1.875 25.7811C1.875 26.578 2.03907 27.0702 2.4961 27.6092L2.8125 27.9842V38.8124V49.6522L2.34375 49.8631C1.71094 50.1561 0.761722 51.1874 0.375003 51.996C0.152347 52.4999 0.0585966 52.91 0.0234404 53.5663C-0.0468721 54.9374 -0.457028 54.8436 5.63672 54.8436C10.3594 54.8436 10.7578 54.8319 10.9219 54.6327C11.2266 54.3046 11.2734 53.953 11.1328 53.1796C10.875 51.7733 10.0313 50.5428 8.89453 49.8983L8.4375 49.6405V40.535C8.4375 34.5116 8.39063 31.3124 8.32032 31.1014C8.07422 30.4569 7.41797 30.2811 6.86719 30.7147L6.5625 30.9491V40.0897V49.2186H5.625H4.6875V38.9178V28.6171L6.01172 28.5702C7.06641 28.535 7.41797 28.4764 7.80469 28.2772C9.38672 27.4452 9.83204 25.2655 8.67188 23.9647C8.4961 23.7655 8.44922 23.4491 8.41407 22.0311C8.37891 20.6835 8.32032 20.2499 8.15625 19.9217C7.88672 19.4061 7.30078 18.785 6.89063 18.5624C6.57422 18.3983 6.5625 18.3749 6.5625 17.3085V16.2303L7.03125 15.9608C7.94532 15.4452 8.55469 14.1561 8.36719 13.1366C8.19141 12.1991 7.57032 11.3788 6.73828 11.0038C6.11719 10.7108 5.01563 10.7225 4.39453 11.0038ZM6.17578 12.9139C6.51563 13.3006 6.5625 13.4999 6.375 13.9217C6.17578 14.4022 5.71875 14.6014 5.25 14.4022C4.86328 14.2381 4.6875 13.9686 4.6875 13.5233C4.6875 12.7616 5.67188 12.3631 6.17578 12.9139ZM6.22266 20.4608C6.46875 20.7303 6.50391 20.8827 6.53907 21.8671L6.58594 22.9686H5.63672H4.6875V21.8085C4.6875 20.6835 4.69922 20.6366 4.99219 20.4022C5.41407 20.0624 5.8711 20.0858 6.22266 20.4608ZM7.10157 25.1131C7.53516 25.4999 7.53516 26.0624 7.10157 26.4491C6.8086 26.6952 6.67969 26.7186 5.55469 26.7186C4.40625 26.7186 4.30078 26.6952 4.04297 26.4256C3.63282 26.0272 3.64453 25.4178 4.05469 25.0897C4.32422 24.8788 4.53516 24.8436 5.57813 24.8436C6.66797 24.8436 6.8086 24.8671 7.10157 25.1131ZM7.61719 51.3749C8.13282 51.6444 8.75391 52.2303 8.97657 52.6405L9.15235 52.9686H5.56641H1.98047L2.15625 52.6405C2.35547 52.2655 2.98828 51.6561 3.39844 51.4335C3.9375 51.1639 4.38282 51.1053 5.80078 51.1405C6.87891 51.1639 7.30078 51.2108 7.61719 51.3749Z" fill="#FF4C60"/>
<path d="M53.2617 11.0037C52.4297 11.3787 51.8086 12.199 51.6328 13.1365C51.4453 14.156 52.0547 15.4451 52.9687 15.9607L53.4375 16.2302V17.2966C53.4375 18.3396 53.4258 18.3748 53.1211 18.574C52.5703 18.9255 52.1367 19.3708 51.8789 19.863C51.668 20.2615 51.6211 20.5896 51.5859 22.031C51.5508 23.449 51.5039 23.7654 51.3281 23.9646C50.4961 24.9021 50.4726 26.5662 51.2695 27.5154L51.5625 27.8669V38.7537V49.6404L51.1055 49.8982C49.9687 50.5427 49.125 51.7732 48.8672 53.1794C48.7266 53.9529 48.7734 54.3044 49.0781 54.6326C49.2422 54.8318 49.6406 54.8435 54.3984 54.8435C59.4609 54.8435 59.5312 54.8435 59.7773 54.5974C60.1289 54.2458 60.0586 52.9333 59.625 51.9958C59.2383 51.1873 58.2891 50.156 57.6562 49.863L57.1875 49.6521V38.8123V27.9841L57.5039 27.6091C57.9609 27.0701 58.125 26.5779 58.125 25.7576C58.125 24.949 57.8555 24.2341 57.4336 23.8591C57.1992 23.6482 57.1875 23.5193 57.1875 21.9841C57.1875 20.6365 57.1406 20.2498 56.9648 19.863C56.7422 19.3591 56.0508 18.6912 55.5937 18.5154C55.3242 18.4099 55.3125 18.3513 55.3125 17.2849C55.3125 16.4646 55.3476 16.1716 55.4648 16.1716C55.793 16.1716 56.5078 15.5388 56.8359 14.9646C57.668 13.5232 57.0351 11.5896 55.5234 10.9685C54.9258 10.7107 53.8476 10.7341 53.2617 11.0037ZM55.043 12.9138C55.5234 13.3591 55.3711 14.1443 54.75 14.4021C54.3047 14.5896 53.8594 14.4138 53.625 13.9568C53.168 13.0779 54.3164 12.2341 55.043 12.9138ZM55.0078 20.4021C55.3008 20.6365 55.3125 20.6833 55.3125 21.8083V22.9685H54.3633H53.4141L53.4609 21.8669C53.4961 20.8826 53.5312 20.7302 53.7773 20.4607C54.1289 20.0857 54.5859 20.0623 55.0078 20.4021ZM55.9453 25.0896C56.3555 25.4177 56.3672 26.0271 55.957 26.4255C55.6992 26.6951 55.5937 26.7185 54.4453 26.7185C53.3203 26.7185 53.1914 26.6951 52.8984 26.449C52.6641 26.2498 52.582 26.0623 52.582 25.781C52.582 25.4998 52.6641 25.3123 52.8984 25.113C53.1914 24.8669 53.332 24.8435 54.4219 24.8435C55.4648 24.8435 55.6758 24.8787 55.9453 25.0896ZM55.3125 38.906V49.2185H54.375H53.4375V38.906V28.5935H54.375H55.3125V38.906ZM56.1211 51.281C56.7773 51.4685 57.457 52.0076 57.8086 52.6052L58.0195 52.9685H54.4336H50.8476L51.0234 52.6404C51.3516 52.0076 52.1836 51.3748 52.9101 51.199C53.5781 51.0466 55.4766 51.0818 56.1211 51.281Z" fill="#FF4C60"/>
<path d="M29.1797 12.785C28.418 13.0897 28.2891 13.3593 27.0586 17.1327L25.8867 20.7421H22.2188C19.793 20.7421 18.4102 20.7889 18.1523 20.871C16.9336 21.2811 16.418 22.746 17.0977 23.8593C17.2266 24.0819 18.457 25.0546 20.1211 26.2499C21.6562 27.3632 23.0039 28.3593 23.1094 28.4647C23.3086 28.6405 23.25 28.8514 22.207 32.0507C21.0469 35.6014 20.9297 36.246 21.2695 36.9139C21.7266 37.7928 23.0508 38.2382 23.9063 37.7928C24.1289 37.6757 25.5586 36.6678 27.0938 35.5546C28.6289 34.4296 29.9414 33.5155 30 33.5155C30.0586 33.5155 31.3711 34.4296 32.9063 35.5546C34.4414 36.6678 35.8711 37.6757 36.0938 37.7928C36.9492 38.2382 38.2734 37.7928 38.7305 36.9139C39.0703 36.246 38.9531 35.6014 37.793 32.0507C36.75 28.8514 36.6914 28.6405 36.8906 28.4647C36.9961 28.3593 38.3438 27.3632 39.8789 26.2499C41.543 25.0546 42.7734 24.0819 42.9023 23.8593C43.6055 22.7108 43.043 21.2343 41.7773 20.8593C41.4727 20.7772 40.5586 20.7421 39.1758 20.7655C36.7969 20.8007 36.7266 20.8241 36.5977 21.5858C36.5508 21.9374 36.5859 22.0663 36.832 22.3124C37.1367 22.6171 37.1367 22.6171 39.1875 22.6171C40.3125 22.6171 41.2617 22.6639 41.2969 22.7225C41.332 22.7811 39.8906 23.8944 38.0859 25.2069C35.8477 26.8358 34.7695 27.6796 34.6875 27.9022C34.5703 28.1835 34.6992 28.6757 35.8125 32.0975C36.5039 34.2303 37.043 35.9999 37.0078 36.0468C36.9609 36.0819 35.4727 35.0507 33.6914 33.7616C31.9102 32.4608 30.3281 31.371 30.1758 31.3358C30.0234 31.3007 29.7773 31.3358 29.625 31.4061C29.4844 31.4882 27.9375 32.578 26.2148 33.8319C24.4805 35.0858 23.0391 36.0819 23.0039 36.0468C22.957 35.9999 23.4961 34.2303 24.1875 32.0975C25.3008 28.6757 25.4297 28.1835 25.3125 27.9022C25.2305 27.6796 24.1523 26.8358 21.9141 25.2069C20.1094 23.8944 18.668 22.7811 18.7031 22.7225C18.7383 22.6639 20.5898 22.6171 22.8398 22.6171C26.5664 22.6171 26.9531 22.5936 27.1641 22.4061C27.3281 22.2772 27.6914 21.3163 28.2422 19.6288C28.6992 18.2108 29.2617 16.4882 29.4961 15.785C29.7188 15.0936 29.9414 14.5311 30 14.5311C30.0586 14.5311 30.6563 16.2538 31.3477 18.3632C32.2031 20.9999 32.6719 22.2772 32.8359 22.4061C33.3984 22.8866 34.3359 22.4764 34.3359 21.7382C34.3359 21.5624 33.7617 19.6405 33.0469 17.4725C31.6875 13.3007 31.582 13.0897 30.7852 12.785C30.375 12.6327 29.5781 12.6327 29.1797 12.785Z" fill="#FF4C60"/>
<path d="M19.0547 28.8513C18.7969 29.0974 18.4805 30.3748 15.9492 41.3904C14.3906 48.1287 13.125 53.8123 13.125 54.0115C13.125 54.2224 13.2305 54.4802 13.3594 54.6091C13.5938 54.8435 13.7461 54.8435 30 54.8435C46.2539 54.8435 46.4062 54.8435 46.6406 54.6091C46.7695 54.4802 46.875 54.2224 46.875 54.0115C46.875 53.8123 45.6094 48.1287 44.0508 41.3904C41.5195 30.3748 41.2031 29.0974 40.9453 28.8513C40.418 28.3826 39.5859 28.6052 39.4453 29.2732C39.3867 29.5193 42.9492 45.3865 44.707 52.699L44.7656 52.9685H30H15.2344L15.293 52.699C17.0508 45.3865 20.6133 29.5193 20.5547 29.2732C20.4141 28.6052 19.582 28.3826 19.0547 28.8513Z" fill="#FF4C60"/>
</g>
<defs>
<clipPath id="clip0_0_2387">
<rect width="60" height="60" fill="white"/>
</clipPath>
</defs>
</svg>
