<svg width="60" height="60" viewBox="0 0 60 60" fill="none" xmlns="http://www.w3.org/2000/svg">
<path d="M0.597675 0.164062C1.88053e-05 0.492188 0.0117376 0.328125 0.0117376 8.49609C1.88155e-05 17.0508 1.88053e-05 17.0625 0.820331 18.7266C1.39455 19.875 2.50783 21.0586 3.60939 21.6797L4.33596 22.0898L4.35939 39.7266L4.39455 57.3633L4.64064 57.9023C5.00392 58.6758 5.55471 59.2383 6.30471 59.6133C6.85549 59.8828 7.12502 59.9414 7.85158 59.9414C9.31643 59.9414 10.4531 59.2148 11.0625 57.9023L11.3086 57.3633L11.3438 39.7266L11.3789 22.0898L12.1055 21.6797C13.1953 21.0586 14.3086 19.875 14.8828 18.7266C15.7031 17.0625 15.7031 17.0391 15.7031 8.51953C15.7031 0.28125 15.7149 0.433594 15.0586 0.140625C14.6719 -0.0351562 14.3906 -0.0351562 14.0039 0.140625C13.3594 0.433594 13.3594 0.375 13.3594 7.38281V13.8281H12.3047H11.25V7.38281C11.25 2.64844 11.2149 0.867188 11.1094 0.644531C10.9571 0.304688 10.4649 0 10.0781 0C9.69143 0 9.19924 0.304688 9.04689 0.644531C8.94143 0.867188 8.90627 2.64844 8.90627 7.38281V13.8281H7.85158H6.79689V7.38281C6.79689 2.64844 6.76174 0.867188 6.65627 0.644531C6.41018 0.09375 5.69533 -0.140625 5.09767 0.140625C4.45314 0.433594 4.45314 0.375 4.45314 7.38281V13.8281H3.39846H2.34377V7.38281C2.34377 2.64844 2.30861 0.867188 2.20314 0.644531C1.94533 0.0820312 1.17189 -0.152344 0.597675 0.164062ZM13.2071 16.5703C13.0078 17.8242 11.6602 19.4062 10.3594 19.9102C9.98439 20.0625 9.52736 20.332 9.35158 20.5195L9.02346 20.8594V38.8008C9.02346 58.3008 9.05861 57.2109 8.37893 57.5156C7.99221 57.6914 7.71096 57.6914 7.32424 57.5156C6.64455 57.2109 6.67971 58.3008 6.67971 38.8008V20.8828L6.37502 20.5195C6.21096 20.3203 6.01174 20.1562 5.92971 20.1562C5.56642 20.1562 4.33596 19.4062 3.78517 18.8555C3.16408 18.2344 2.60158 17.2383 2.49611 16.5703L2.4258 16.1719H7.85158H13.2774L13.2071 16.5703Z" fill="#FF4C60"/>
<path d="M57.8203 0.457031C56.7539 1.17188 55.2422 2.53125 54.2344 3.67969C51.7618 6.46875 50.0625 9.96094 49.3125 13.7344C49.0547 15.0234 49.0547 15.3164 49.0078 24.1523C48.9727 34.1953 48.961 34.0664 49.6993 35.5312C49.9688 36.0586 50.4727 36.6797 51.5157 37.7344L52.9688 39.2109L52.9922 48.293C53.0274 57.2344 53.0274 57.375 53.2735 57.9023C53.6368 58.6758 54.1875 59.2383 54.9375 59.6133C55.4883 59.8828 55.7578 59.9414 56.4844 59.9414C57.9493 59.9414 59.086 59.2148 59.6953 57.9023L59.9414 57.3633L59.9766 29.1797C60 8.09766 59.9649 0.914062 59.8711 0.667969C59.7188 0.304688 59.2266 0 58.793 0C58.6289 0 58.1953 0.210938 57.8203 0.457031ZM57.5274 56.9883C57.375 57.3398 56.8828 57.6562 56.4844 57.6562C56.1446 57.6562 55.5938 57.3516 55.4766 57.1055C55.418 56.9883 55.3477 52.6875 55.3125 47.5547L55.2539 38.2148L53.6016 36.5391C52.5235 35.4375 51.8555 34.6641 51.668 34.2773L51.3868 33.6914L51.3516 25.0898C51.3282 17.9648 51.3516 16.2422 51.5039 15.1289C52.0196 11.1094 53.8125 7.41797 56.6016 4.58203L57.5977 3.57422L57.6328 30.1172C57.6563 49.9219 57.6211 56.7422 57.5274 56.9883Z" fill="#FF4C60"/>
<path d="M27.4219 7.74609C25.2656 7.99219 22.6055 8.74219 20.6836 9.65625C19.5117 10.207 19.2188 10.5 19.2188 11.1094C19.2188 11.6484 19.7578 12.1875 20.2852 12.1875C20.4961 12.1875 21.3516 11.9062 22.1953 11.5547C25.5938 10.1367 29.0625 9.66797 32.6133 10.1367C36.8672 10.6992 40.5117 12.4219 43.6992 15.4102C44.8008 16.4297 44.9297 16.5234 45.3633 16.5234C46.043 16.5234 46.5234 16.0312 46.5234 15.3398C46.5234 14.8828 46.4648 14.7891 45.6445 13.9922C42 10.4531 37.3945 8.29688 32.3203 7.74609C31.0078 7.59375 28.7109 7.60547 27.4219 7.74609Z" fill="#FF4C60"/>
<path d="M28.3008 13.4297C25.7344 13.7109 22.8867 14.7656 20.6367 16.2656C19.3242 17.1328 17.1328 19.3242 16.2656 20.625C15 22.5352 14.168 24.4922 13.6875 26.707C13.3242 28.3125 13.336 31.6641 13.6875 33.293C15.1406 39.9375 20.0977 44.8828 26.7539 46.3125C28.4649 46.6758 31.5352 46.6758 33.2344 46.3125C34.9453 45.9492 36.0938 45.5391 37.6289 44.7422C42.0938 42.457 45.2227 38.3086 46.3125 33.2461C46.6524 31.6523 46.6758 28.582 46.3594 27.0117C45.3164 21.7383 42.0469 17.4258 37.3242 15.082C35.0977 13.9805 33.0586 13.4883 30.4688 13.418C29.5313 13.3945 28.5586 13.4063 28.3008 13.4297ZM32.1211 15.8789C36.7031 16.5703 40.6875 19.4648 42.8086 23.6719C43.3945 24.8438 43.9219 26.5078 44.1211 27.8789C45.293 35.6484 39.9024 42.9492 32.1094 44.1328C25.9336 45.0586 19.8164 41.8008 17.1094 36.1523C13.9102 29.4609 16.3594 21.5156 22.793 17.6719C25.5117 16.043 28.9102 15.3867 32.1211 15.8789Z" fill="#FF4C60"/>
<path d="M29.4609 19.3359C29.0742 19.4883 28.8281 19.9218 28.8281 20.4258C28.8281 21.5976 30.4688 21.9961 31.0078 20.9648C31.5352 19.9336 30.5391 18.8906 29.4609 19.3359Z" fill="#FF4C60"/>
<path d="M25.1485 20.4023C22.0313 21.9727 19.8281 25.0664 19.3477 28.5352C19.1367 30.0586 19.1602 30.3164 19.6172 30.7734C20.0625 31.2188 20.4375 31.2773 20.9649 30.9961C21.375 30.7852 21.5039 30.4453 21.6563 29.1094C21.7969 27.8789 22.1953 26.6367 22.7578 25.6875C23.3438 24.6797 24.8555 23.2383 25.9571 22.6289C26.4727 22.3359 26.9883 22.0312 27.0938 21.9375C27.3985 21.6797 27.4805 21.0703 27.2578 20.6484C26.8828 19.9336 26.2149 19.8516 25.1485 20.4023Z" fill="#FF4C60"/>
<path d="M46.2656 42.0468C46.1602 42.0937 45.4453 42.7851 44.6953 43.582C41.6602 46.7578 38.6133 48.539 34.5352 49.5117C29.6602 50.6718 24.2695 49.8632 19.9805 47.3437C19.3242 46.957 18.7852 46.7226 18.5508 46.7226C17.7422 46.6992 17.1563 47.5429 17.4609 48.2929C17.6484 48.7265 18.293 49.1601 19.9805 50.0039C29.4258 54.7382 40.8984 52.2187 47.4961 43.9687C47.6953 43.7109 47.8125 43.4179 47.8125 43.1718C47.8125 42.4453 46.8867 41.7773 46.2656 42.0468Z" fill="#FF4C60"/>
<path d="M14.4258 43.9922C14.2734 44.0743 14.0742 44.2735 13.9922 44.4258C13.3359 45.6094 14.8828 46.7813 15.832 45.8321C16.7812 44.8829 15.6094 43.336 14.4258 43.9922Z" fill="#FF4C60"/>
</svg>
