<svg width="60" height="60" viewBox="0 0 60 60" fill="none" xmlns="http://www.w3.org/2000/svg">
<path d="M29.4141 1.9922C29.3203 2.03908 28.6641 3.24611 27.9609 4.66408L26.6836 7.23048L24.0352 7.60548C22.582 7.81642 21.293 8.01564 21.1758 8.0508C20.8008 8.14455 20.5078 8.57814 20.5078 9.01173C20.4961 9.41017 20.6484 9.57423 22.582 11.4492L24.668 13.4766L24.2227 16.0781C23.7188 19.0899 23.707 19.3711 24.0234 19.6875C24.4922 20.1563 24.9492 20.0156 27.5742 18.6445L30.0117 17.3672L32.4375 18.6445C35.0508 20.0156 35.5078 20.1563 35.9766 19.6875C36.293 19.3711 36.2813 19.0899 35.7773 16.0899L35.332 13.4766L37.418 11.461C39.3516 9.57423 39.5039 9.39845 39.4922 9.02345C39.4805 8.57814 39.3281 8.30861 38.9648 8.12111C38.8359 8.0508 37.5117 7.82814 36.0234 7.6172L33.3164 7.23048L32.0391 4.66408C31.3359 3.24611 30.668 2.03908 30.5625 1.98048C30.3164 1.85158 29.6484 1.85158 29.4141 1.9922ZM32.1328 9.01173C32.2852 9.07033 33.2461 9.23439 34.2773 9.38673C35.3086 9.52736 36.1758 9.66798 36.1992 9.69142C36.2344 9.71486 35.5898 10.4063 34.7695 11.2383C33.5391 12.4688 33.2813 12.7969 33.2813 13.0781C33.2813 13.2656 33.4102 14.1797 33.5742 15.1172C33.7383 16.0547 33.8672 16.8867 33.8672 16.957C33.8672 17.0391 33.0703 16.6875 32.0742 16.1719C31.0781 15.6563 30.1523 15.2344 30 15.2344C29.8477 15.2344 28.9219 15.6563 27.9258 16.1719C26.8945 16.711 26.1328 17.0508 26.1328 16.9688C26.1328 16.8867 26.2617 16.0547 26.4258 15.1172C26.5898 14.1797 26.7188 13.2656 26.7188 13.0664C26.7188 12.7735 26.4727 12.4688 25.2305 11.2266C24.4102 10.4063 23.7656 9.71486 23.7891 9.69142C23.8242 9.66798 24.6914 9.52736 25.7227 9.38673C26.7422 9.23439 27.7148 9.05861 27.8672 8.9883C28.0664 8.89455 28.418 8.32033 29.0742 6.99611L30.0117 5.14455L30.9375 7.03127C31.6055 8.37892 31.9453 8.94142 32.1328 9.01173Z" fill="#FF4C60"/>
<path d="M14.0391 12.3867C13.9336 12.5039 13.4766 13.3477 13.0195 14.2617C12.5625 15.1875 12.1172 15.9375 12.0352 15.9375C11.9648 15.9375 11.0859 16.0664 10.0898 16.2188C8.0625 16.5234 7.85156 16.6406 7.85156 17.4492C7.85156 17.8359 7.96875 17.9883 9.26953 19.2773L10.6992 20.6719L10.3828 22.5C10.2188 23.4961 10.0781 24.4102 10.0781 24.5273C10.0781 24.8789 10.6055 25.3125 11.0273 25.3125C11.2734 25.3125 12 24.9961 13.0664 24.4453L14.7188 23.5664L16.3594 24.4336C18.1172 25.3711 18.5273 25.4648 19.0312 25.0664C19.418 24.7617 19.4297 24.4453 19.043 22.3242L18.75 20.6836L20.1562 19.2773C21.5039 17.9297 21.5625 17.8477 21.5625 17.3789C21.5625 16.6875 21.2578 16.4766 19.957 16.3008C19.3945 16.2188 18.5391 16.1016 18.0586 16.0312L17.1914 15.9023L16.4414 14.3086C16.0312 13.4297 15.5742 12.5977 15.4453 12.4453C15.1289 12.1172 14.3086 12.082 14.0391 12.3867ZM15.293 16.5234C15.5859 17.0977 15.9141 17.6133 16.0195 17.6719C16.1367 17.7422 16.7227 17.8477 17.3203 17.9297L18.4102 18.082L17.6602 18.8555C16.6055 19.9336 16.5938 19.957 16.8164 21.1758C16.9102 21.75 16.9922 22.2656 16.9922 22.3359C16.9922 22.4062 16.5586 22.2422 16.0312 21.9609C15.4922 21.6797 14.9062 21.4453 14.7305 21.4453C14.543 21.4453 13.9453 21.6914 13.4062 21.9844C12.8672 22.2773 12.4219 22.5 12.4219 22.4766C12.4219 22.4531 12.5039 21.9961 12.5977 21.4453C12.8555 19.9453 12.8789 20.0039 11.8945 18.9961L11.0156 18.0938L12.1055 17.9414C12.6914 17.8711 13.3008 17.7188 13.4531 17.625C13.5938 17.5312 13.9336 17.0039 14.2148 16.4648C14.4844 15.9141 14.7188 15.4688 14.7305 15.4688C14.7539 15.4688 15 15.9375 15.293 16.5234Z" fill="#FF4C60"/>
<path d="M44.5664 12.4453C44.4258 12.5977 43.9805 13.4297 43.5586 14.3086L42.8086 15.9023L41.9414 16.0312C41.4609 16.1016 40.6055 16.2188 40.043 16.3008C38.7422 16.4766 38.4375 16.6875 38.4375 17.3789C38.4375 17.8477 38.4961 17.9297 39.8438 19.2773L41.25 20.6836L40.957 22.3242C40.582 24.457 40.582 24.7617 40.9688 25.0664C41.1445 25.207 41.4375 25.3125 41.6133 25.3125C41.8125 25.3125 42.668 24.9375 43.6172 24.4453L45.2812 23.5664L46.9336 24.4453C48 24.9961 48.7266 25.3125 48.9727 25.3125C49.3945 25.3125 49.9219 24.8789 49.9219 24.5273C49.9219 24.4102 49.7812 23.4961 49.6172 22.5L49.3008 20.6719L50.7305 19.2773C52.0547 17.9648 52.1484 17.8359 52.1484 17.4258C52.1484 16.7109 51.8203 16.4766 50.5664 16.3008C49.9805 16.2188 49.125 16.1016 48.6562 16.0312L47.8008 15.9023L46.9688 14.25C46.5234 13.3477 46.0664 12.5039 45.9609 12.3867C45.6914 12.082 44.8711 12.1172 44.5664 12.4453ZM46.5469 17.625C46.6992 17.7188 47.3086 17.8711 47.8945 17.9414L48.9844 18.0938L48.1055 18.9961C47.1211 20.0039 47.1445 19.9453 47.4023 21.4453C47.4961 21.9961 47.5781 22.4531 47.5781 22.4766C47.5781 22.5 47.1328 22.2773 46.5938 21.9844C46.0547 21.6797 45.4688 21.4453 45.2812 21.4453C45.0938 21.4453 44.5078 21.6797 43.9805 21.9609C43.4414 22.2422 43.0078 22.4062 43.0078 22.3359C43.0078 22.2656 43.0898 21.75 43.1836 21.1758C43.4062 19.957 43.3945 19.9336 42.3398 18.8555L41.5898 18.082L42.6797 17.9297C43.2773 17.8477 43.8633 17.7422 43.9805 17.6719C44.0859 17.6133 44.4258 17.0859 44.7188 16.4883L45.2578 15.4102L45.7734 16.4297C46.0547 16.9922 46.4062 17.5312 46.5469 17.625Z" fill="#FF4C60"/>
<path d="M25.5469 20.8594C25.3477 21.0586 25.3125 21.2461 25.3125 22.2656V23.4375H23.6719C21.3984 23.4375 21.5625 23.2031 21.5625 26.4844V29.0625H17.5781C13.7461 29.0625 13.582 29.0742 13.3594 29.2969C13.1367 29.5195 13.125 29.6836 13.125 32.5781V35.625H14.0625H15V33.2812V30.9375H18.2812H21.5625V41.7187V52.5H18.2812H15V45V37.5H14.0625H13.125V44.8828V52.2656L12.6797 52.043C12.4453 51.9258 12.0234 51.7617 11.7539 51.6797L11.25 51.5273V50.2031C11.25 48.5273 11.0156 47.8242 10.1953 46.9922C9.30469 46.1133 8.70703 45.9375 6.5625 45.9375C4.41797 45.9375 3.82031 46.1133 2.92969 46.9922C1.89844 48.0352 1.875 48.1641 1.875 53.2617C1.875 57.5039 1.88672 57.668 2.10938 57.8906C2.34375 58.125 2.49609 58.125 30 58.125C57.5039 58.125 57.6562 58.125 57.8906 57.8906C58.1133 57.668 58.125 57.5039 58.125 53.2617C58.125 48.1641 58.1016 48.0352 57.0703 46.9922C56.1797 46.1133 55.582 45.9375 53.4375 45.9375C51.293 45.9375 50.6953 46.1133 49.8047 46.9922C48.9844 47.8242 48.75 48.5273 48.75 50.2031V51.5273L48.2578 51.6797C47.9766 51.7617 47.5547 51.9258 47.3203 52.043L46.875 52.2656V50.0391V47.8125H45.9375H45V50.1562V52.5H41.7188H38.4375V41.7187V30.9375H41.7188H45V38.4375V45.9375H45.9375H46.875V37.7344C46.875 29.6836 46.875 29.5312 46.6406 29.2969C46.418 29.0742 46.2539 29.0625 42.4219 29.0625H38.4375V26.4844C38.4375 23.2031 38.6016 23.4375 36.3281 23.4375H34.6875V22.2656C34.6875 20.4844 35.0859 20.625 30 20.625C25.9336 20.625 25.7695 20.6367 25.5469 20.8594ZM32.8125 24.375V26.25H30H27.1875V24.375V22.5H30H32.8125V24.375ZM25.3125 26.4844C25.3125 28.2656 24.9141 28.125 30 28.125C35.0859 28.125 34.6875 28.2656 34.6875 26.4844V25.3125H35.625H36.5625V40.7812V56.25H35.1562H33.75V52.7344C33.75 49.3711 33.7383 49.207 33.5156 48.9844C33.293 48.7617 33.1289 48.75 30 48.75C26.8711 48.75 26.707 48.7617 26.4844 48.9844C26.2617 49.207 26.25 49.3711 26.25 52.7344V56.25H24.8438H23.4375V40.7812V25.3125H24.375H25.3125V26.4844ZM7.78125 47.9297C8.87109 48.1758 9.26953 48.8086 9.35156 50.3789L9.39844 51.5156L8.89453 51.668C7.05469 52.207 5.76562 53.7422 5.64844 55.5117L5.60156 56.25H4.66406H3.73828L3.77344 52.7578C3.80859 49.5234 3.82031 49.2539 4.04297 48.8789C4.33594 48.3867 4.76953 48.0469 5.28516 47.9297C5.83594 47.8008 7.23047 47.8008 7.78125 47.9297ZM55.1953 48.1172C55.6992 48.4102 56.0039 48.832 56.1328 49.4062C56.1914 49.6523 56.25 51.3047 56.25 53.0508V56.25H55.3242H54.3984L54.3516 55.5234C54.2344 53.7422 52.9453 52.207 51.1055 51.668L50.6016 51.5156L50.6484 50.3789C50.7305 48.8437 51.1289 48.1875 52.1602 47.918C52.8633 47.7422 54.7734 47.8594 55.1953 48.1172ZM31.875 53.4375V56.25H30H28.125V53.4375V50.625H30H31.875V53.4375ZM11.6953 53.8125C12.293 54.0937 12.8555 54.8086 12.9609 55.418C12.9961 55.6523 13.0547 55.9336 13.0898 56.0391C13.1367 56.2383 12.9492 56.25 10.3242 56.25H7.51172L7.58203 55.8047C7.67578 55.1133 8.10938 54.3516 8.625 53.9883C9.44531 53.4141 10.6875 53.3437 11.6953 53.8125ZM51.0703 53.8125C51.668 54.0937 52.2305 54.8086 52.3359 55.418C52.3711 55.6523 52.4297 55.9336 52.4648 56.0391C52.5117 56.2383 52.3242 56.25 49.6992 56.25H46.8867L46.957 55.8047C47.0508 55.1133 47.4844 54.3516 48 53.9883C48.8203 53.4141 50.0625 53.3437 51.0703 53.8125ZM21.5625 55.3125V56.25H18.2812H15V55.3125V54.375H18.2812H21.5625V55.3125ZM45 55.3125V56.25H41.7188H38.4375V55.3125V54.375H41.7188H45V55.3125Z" fill="#FF4C60"/>
<path d="M25.3125 30.9375V31.875H26.25H27.1875V30.9375V30H26.25H25.3125V30.9375Z" fill="#FF4C60"/>
<path d="M29.0625 30.9375V31.875H30H30.9375V30.9375V30H30H29.0625V30.9375Z" fill="#FF4C60"/>
<path d="M32.8125 30.9375V31.875H33.75H34.6875V30.9375V30H33.75H32.8125V30.9375Z" fill="#FF4C60"/>
<path d="M25.3125 34.6875V35.625H26.25H27.1875V34.6875V33.75H26.25H25.3125V34.6875Z" fill="#FF4C60"/>
<path d="M29.0625 34.6875V35.625H30H30.9375V34.6875V33.75H30H29.0625V34.6875Z" fill="#FF4C60"/>
<path d="M32.8125 34.6875V35.625H33.75H34.6875V34.6875V33.75H33.75H32.8125V34.6875Z" fill="#FF4C60"/>
<path d="M25.3125 38.4375V39.375H26.25H27.1875V38.4375V37.5H26.25H25.3125V38.4375Z" fill="#FF4C60"/>
<path d="M29.0625 38.4375V39.375H30H30.9375V38.4375V37.5H30H29.0625V38.4375Z" fill="#FF4C60"/>
<path d="M32.8125 38.4375V39.375H33.75H34.6875V38.4375V37.5H33.75H32.8125V38.4375Z" fill="#FF4C60"/>
<path d="M25.3125 42.1875V43.125H26.25H27.1875V42.1875V41.25H26.25H25.3125V42.1875Z" fill="#FF4C60"/>
<path d="M29.0625 42.1875V43.125H30H30.9375V42.1875V41.25H30H29.0625V42.1875Z" fill="#FF4C60"/>
<path d="M32.8125 42.1875V43.125H33.75H34.6875V42.1875V41.25H33.75H32.8125V42.1875Z" fill="#FF4C60"/>
<path d="M25.3125 45.9375V46.875H26.25H27.1875V45.9375V45H26.25H25.3125V45.9375Z" fill="#FF4C60"/>
<path d="M29.0625 45.9375V46.875H30H30.9375V45.9375V45H30H29.0625V45.9375Z" fill="#FF4C60"/>
<path d="M32.8125 45.9375V46.875H33.75H34.6875V45.9375V45H33.75H32.8125V45.9375Z" fill="#FF4C60"/>
<path d="M6.1875 24.5742C6.08203 24.6914 5.76562 25.2656 5.47266 25.8516L4.93359 26.918L3.96094 27.0703C2.05078 27.3516 1.875 27.4571 1.875 28.3125C1.875 28.711 1.96875 28.8516 2.8125 29.6953L3.75 30.6328L3.57422 31.6289C3.31641 33.1055 3.33984 33.4453 3.70312 33.7383C4.17188 34.1133 4.59375 34.043 5.77734 33.3985L6.85547 32.8242L7.94531 33.3985C9.12891 34.043 9.53906 34.1133 10.0078 33.7383C10.3711 33.4571 10.3945 33.1055 10.1367 31.6406L9.96094 30.6446L10.8398 29.7656C11.8594 28.7344 12.0234 28.4063 11.7891 27.8438C11.5898 27.375 11.3203 27.2696 9.80859 27.0703L8.77734 26.9297L8.23828 25.8516C7.55859 24.4688 7.46484 24.375 6.85547 24.375C6.53906 24.375 6.30469 24.4453 6.1875 24.5742ZM7.07812 28.0547C7.27734 28.5235 7.61719 28.7696 8.25 28.8867L8.70703 28.9571L8.30859 29.3672C7.94531 29.7422 7.91016 29.836 7.93359 30.4219C7.95703 31.1133 7.93359 31.125 7.5 30.8789C7.33594 30.7852 7.05469 30.7149 6.85547 30.7149C6.66797 30.7149 6.375 30.7852 6.21094 30.8789C5.77734 31.125 5.75391 31.1133 5.77734 30.4219C5.80078 29.836 5.76562 29.7422 5.40234 29.3672L5.00391 28.9571L5.46094 28.8867C6.08203 28.7696 6.42188 28.5352 6.64453 28.0664C6.75 27.8438 6.85547 27.6563 6.87891 27.6563C6.89062 27.6563 6.98438 27.8321 7.07812 28.0547Z" fill="#FF4C60"/>
<path d="M52.4766 24.5742C52.3711 24.6914 52.0547 25.2656 51.7618 25.8516L51.2227 26.918L50.25 27.0703C48.5977 27.3047 48.3985 27.3867 48.211 27.8321C47.9766 28.4063 48.1407 28.7344 49.1602 29.7656L50.0391 30.6446L49.8633 31.6406C49.6055 33.1055 49.6289 33.4571 49.9922 33.7383C50.461 34.1133 50.8711 34.043 52.0547 33.3985L53.1446 32.8242L54.2227 33.3985C55.4063 34.043 55.8282 34.1133 56.2969 33.7383C56.6602 33.4453 56.6836 33.1055 56.4258 31.6289L56.25 30.6328L57.1875 29.6953C58.0313 28.8516 58.125 28.711 58.125 28.3125C58.125 27.4453 57.9024 27.3047 56.0977 27.0703L55.0664 26.9297L54.5274 25.8516C53.8477 24.4688 53.7539 24.375 53.1446 24.375C52.8282 24.375 52.5938 24.4453 52.4766 24.5742ZM53.8243 28.6406C53.9649 28.7227 54.2813 28.8399 54.5391 28.8867L54.9961 28.9571L54.5977 29.3672C54.2344 29.7422 54.1993 29.836 54.2227 30.4219C54.2461 31.1133 54.2227 31.125 53.7891 30.8789C53.625 30.7852 53.3438 30.7149 53.1446 30.7149C52.9571 30.7149 52.6641 30.7852 52.5 30.8789C52.0664 31.125 52.043 31.1133 52.0664 30.4219C52.0899 29.836 52.0547 29.7422 51.6914 29.3672L51.293 28.9571L51.75 28.8867C52.3711 28.7696 52.711 28.5352 52.9336 28.0547L53.1328 27.6446L53.3438 28.0547C53.461 28.2891 53.6719 28.5469 53.8243 28.6406Z" fill="#FF4C60"/>
<path d="M16.875 34.6875V35.625H18.2812H19.6875V34.6875V33.75H18.2812H16.875V34.6875Z" fill="#FF4C60"/>
<path d="M40.3125 34.6875V35.625H41.7188H43.125V34.6875V33.75H41.7188H40.3125V34.6875Z" fill="#FF4C60"/>
<path d="M16.875 39.375V40.3125H18.2812H19.6875V39.375V38.4375H18.2812H16.875V39.375Z" fill="#FF4C60"/>
<path d="M40.3125 39.375V40.3125H41.7188H43.125V39.375V38.4375H41.7188H40.3125V39.375Z" fill="#FF4C60"/>
<path d="M16.875 44.0625V45H18.2812H19.6875V44.0625V43.125H18.2812H16.875V44.0625Z" fill="#FF4C60"/>
<path d="M40.3125 44.0625V45H41.7188H43.125V44.0625V43.125H41.7188H40.3125V44.0625Z" fill="#FF4C60"/>
<path d="M16.875 48.75V49.6875H18.2812H19.6875V48.75V47.8125H18.2812H16.875V48.75Z" fill="#FF4C60"/>
<path d="M40.3125 48.75V49.6875H41.7188H43.125V48.75V47.8125H41.7188H40.3125V48.75Z" fill="#FF4C60"/>
</svg>
