<svg width="60" height="60" viewBox="0 0 60 60" fill="none" xmlns="http://www.w3.org/2000/svg">
<path d="M18.2109 3.98431C18.0703 4.03118 17.8477 4.2304 17.707 4.40618C17.4727 4.69915 17.4609 4.85149 17.4609 6.80852V8.90618L17.8008 9.28118C18.0938 9.62102 18.2109 9.65618 18.9023 9.70305L19.6758 9.74993L19.7109 17.9531L19.7461 26.1562L20.0273 26.3788C20.3789 26.6718 20.918 26.6601 21.2109 26.3671C21.4453 26.1327 21.4453 25.9804 21.4453 17.9296V9.72649H38.2031H54.9609L54.9844 22.9804L55.0195 36.2343L55.3477 36.5156C55.7461 36.8554 56.0039 36.8671 56.4141 36.5507L56.7188 36.3163V23.0156V9.72649H57.3047C58.0195 9.72649 58.6055 9.50384 58.875 9.12884C59.0273 8.89446 59.0625 8.50774 59.0625 6.77337V4.68743L58.7227 4.31243L58.3828 3.92571L38.4141 3.90228C27.4336 3.89056 18.3398 3.92571 18.2109 3.98431ZM57.3047 6.7968V7.96868H38.2617H19.2188V6.7968V5.62493H38.2617H57.3047V6.7968Z" fill="#FF4C60"/>
<path d="M24.668 12.4454C24.3516 12.75 24.082 13.3008 23.3672 15.0938L22.4766 17.3438L22.5234 18.6094C22.5586 19.6524 22.6172 19.9688 22.8633 20.5079C23.2148 21.2696 23.9766 22.0547 24.6211 22.3477L25.0781 22.5469V25.7461V28.9454H22.0312C20.3672 28.9454 18.4453 29.0039 17.7891 29.0743C14.8828 29.3907 12.5508 30.4805 10.1367 32.6485C8.14453 34.4297 6.52734 35.2969 4.19531 35.8125C3.46875 35.9766 2.60156 36.2344 2.27344 36.375C1.53516 36.7149 0.785156 37.4766 0.375 38.3204L0.0585938 38.9649V43.4766C0.0585938 47.5196 0.0820312 48.0235 0.257812 48.3516C0.644531 49.0664 1.14844 49.418 2.83594 50.168C5.35547 51.3047 5.17969 51.1875 5.33203 51.8789C5.75391 53.7891 7.26562 55.3711 9.24609 55.9688C9.96094 56.1797 11.3555 56.1797 12.1406 55.9453C13.9805 55.418 15.5039 53.8828 15.9375 52.125L16.0781 51.5625H29.9414H43.8047L43.9336 52.1133C44.2617 53.4141 45.3281 54.7735 46.582 55.4766C47.7656 56.1328 49.4648 56.3203 50.7539 55.9453C52.5352 55.418 54.0586 53.8594 54.5039 52.1016L54.6328 51.5625H55.9688C57.6562 51.5625 58.3359 51.3399 59.0859 50.5313C59.9414 49.6172 60.0234 49.1953 59.9766 46.2539C59.918 43.3946 59.8477 43.0899 58.8164 41.543C58.0781 40.4414 57.2578 39.7149 56.0742 39.1289C55.2305 38.7071 54.7148 38.5899 50.7422 37.793C48.3281 37.3125 46.0898 36.8321 45.7617 36.7266C44.6133 36.3399 43.4883 35.6836 40.1016 33.4219L36.6562 31.1133L43.2656 31.0547C49.207 30.9961 49.8984 30.9727 50.2266 30.7969C50.7305 30.5274 51.1758 29.9649 51.3281 29.4375C51.3984 29.1914 51.4453 27.6094 51.4453 25.6993V22.3829L51.9141 22.0782C52.4297 21.7266 52.8164 21.2813 53.2031 20.5079C53.4258 20.0743 53.4844 19.7461 53.5312 18.6563L53.5898 17.3321L52.6875 15.0586C51.9375 13.1836 51.7148 12.7266 51.375 12.4336L50.9648 12.0704H38.0273H25.0781L24.668 12.4454ZM50.7539 14.9766C51 15.5743 51.2344 16.1719 51.2695 16.3008C51.3398 16.5235 51.1641 16.5235 38.0391 16.5235C30.7148 16.5235 24.7266 16.5 24.7266 16.4649C24.7266 16.3946 25.6641 14.0391 25.7344 13.9219C25.7695 13.8633 31.3125 13.8399 38.0508 13.8516L50.3203 13.8868L50.7539 14.9766ZM28.3594 18.8321C28.3594 20.0508 27.4805 20.9766 26.3203 20.9766C25.125 20.9766 24.2578 20.0625 24.2578 18.7969V18.2813H26.3086H28.3594V18.8321ZM34.1953 18.9727C34.1367 19.8282 33.7734 20.4141 33.0938 20.7422C31.6641 21.4454 30.1172 20.4493 30.1172 18.8086V18.2813H32.1797H34.2422L34.1953 18.9727ZM40.0547 18.9727C39.9961 19.8282 39.6328 20.4141 38.9531 20.7422C37.5234 21.4454 35.9766 20.4493 35.9766 18.8086V18.2813H38.0391H40.1016L40.0547 18.9727ZM45.9375 18.7969C45.9375 19.4532 45.7734 19.8868 45.375 20.3204C44.0625 21.7149 41.8359 20.7657 41.8359 18.8086V18.2813H43.8867H45.9375V18.7969ZM51.7969 18.7969C51.7969 19.4532 51.6328 19.8868 51.2344 20.3086C50.8008 20.7774 50.3672 20.9766 49.8164 20.9766C48.5859 20.9766 47.6953 20.0743 47.6953 18.8086V18.2813H49.7461H51.7969V18.7969ZM29.6602 21.75C30.1523 22.2891 31.0312 22.6524 31.9688 22.711C32.9883 22.7813 33.6328 22.5704 34.5469 21.8789L35.168 21.4102L35.543 21.7618C36.1523 22.3477 36.8789 22.6524 37.8281 22.711C38.8125 22.7696 39.5039 22.5704 40.2539 21.9961C40.5117 21.7969 40.7812 21.5977 40.8516 21.5391C40.9336 21.4805 41.1914 21.6094 41.543 21.9024C42.8203 22.9571 44.7773 23.0274 46.043 22.043C46.8867 21.3868 46.793 21.3985 47.3906 21.8907C47.9414 22.3477 48.8672 22.7344 49.4062 22.7344H49.6875V25.793C49.6875 27.668 49.6406 28.9336 49.5703 29.0743C49.4531 29.2969 49.2305 29.2969 40.8047 29.2969C35.5547 29.2969 31.9805 29.25 31.6992 29.1797C31.4414 29.1094 30.2461 29.0274 29.0391 28.9805L26.8359 28.9102V25.8282V22.7579L27.4688 22.5586C27.8086 22.4532 28.3477 22.1602 28.6641 21.9141C28.9805 21.668 29.2734 21.4571 29.3086 21.4571C29.3438 21.4454 29.4961 21.586 29.6602 21.75ZM30.6445 30.8204C33.1992 31.0899 34.0547 31.4883 38.7656 34.6524C42.5742 37.2071 44.1562 38.1094 45.4688 38.4727C45.8203 38.5782 48 39.0352 50.3086 39.4922C54.5625 40.336 54.9844 40.4532 55.8047 40.9688L56.2734 41.2618L55.6641 41.5664C54.6094 42.0938 54.1523 42.9493 54.1406 44.4493C54.1406 45.5508 54.3398 46.0782 54.8672 46.4063C55.207 46.6055 55.4531 46.6407 56.7539 46.6407H58.2422V47.6602C58.2422 49.4297 57.8203 49.8047 55.8633 49.8047H54.6328L54.5039 49.2657C54.1758 48 53.3203 46.8282 52.1602 46.0782C50.5195 45.0235 48.2812 44.9532 46.582 45.8907C45.3281 46.5938 44.2617 47.9532 43.9336 49.2539L43.8047 49.8047H29.9414H16.0781L15.9375 49.2422C15.6094 47.9297 14.5664 46.6055 13.3008 45.9024C11.2734 44.7657 8.74219 45.0821 6.9375 46.6993C6.33984 47.2383 5.60156 48.3868 5.44922 49.0196C5.40234 49.1953 5.34375 49.336 5.32031 49.336C5.12109 49.336 2.01562 47.8711 1.89844 47.7188C1.82812 47.625 1.75781 47.3438 1.75781 47.0977V46.6758L2.74219 46.6172C4.42969 46.5352 4.6875 46.1719 4.6875 43.9336C4.6875 41.7305 4.40625 41.3672 2.69531 41.3672H1.75781V40.4532C1.76953 38.8946 2.41406 37.9922 3.71484 37.7344C6.85547 37.1133 8.82422 36.1641 10.9805 34.2422C12.4336 32.9532 13.125 32.4493 14.1328 31.9454C15.5156 31.2774 16.6992 30.9375 18.2812 30.7852C19.2422 30.6797 29.6836 30.7149 30.6445 30.8204ZM57.9141 43.4766C58.0195 43.6993 58.1484 44.1094 58.1953 44.3789L58.2773 44.8828H57.082H55.8984V44.3555C55.8984 43.3711 56.2852 42.9961 57.2461 43.043C57.6562 43.0664 57.7383 43.1133 57.9141 43.4766ZM2.92969 44.0039V44.8828H2.34375H1.75781V44.0039V43.125H2.34375H2.92969V44.0039ZM11.9531 47.2149C12.7617 47.5196 13.2891 47.9532 13.7695 48.668C15.3398 51.0703 13.7695 54.1875 10.8984 54.3516C9.29297 54.4453 8.0625 53.7305 7.35938 52.3008C7.04297 51.6446 6.98438 51.3985 6.98438 50.6836C6.98438 48.1055 9.5625 46.3125 11.9531 47.2149ZM50.8242 47.3203C52.3945 48.1289 53.2148 49.7813 52.8633 51.4102C52.4766 53.1563 51.2109 54.2461 49.4531 54.3516C47.8477 54.4453 46.6172 53.7305 45.9141 52.3008C45.5977 51.6446 45.5391 51.3985 45.5391 50.6836C45.5391 49.1485 46.4531 47.8008 47.8945 47.2149C48.668 46.9102 50.1211 46.9571 50.8242 47.3203Z" fill="#FF4C60"/>
<path d="M18.2813 31.9923C15.75 32.2384 13.875 33.1056 11.7539 35.0509C11.2031 35.5666 10.2656 36.3048 9.67969 36.7033C8.47266 37.5119 8.25001 37.7463 8.14454 38.297C7.98048 39.1759 8.81251 40.5588 9.87891 41.1916C10.7227 41.672 11.5313 41.7306 16.7578 41.6955C21.1758 41.6603 21.6445 41.6369 21.9258 41.4494C22.0898 41.3439 22.2891 41.1095 22.3594 40.9455C22.5469 40.5588 22.5586 33.2345 22.3711 32.7189C22.1602 32.1095 21.7734 31.9572 20.4492 31.922C19.8047 31.9103 18.832 31.9337 18.2813 31.9923ZM20.7422 36.8673V39.9728L15.9727 39.9377C11.707 39.9025 11.1563 39.8791 10.8164 39.7033C10.4297 39.4806 9.96094 38.965 9.96094 38.7423C9.97266 38.672 10.3711 38.3439 10.875 38.0041C11.3672 37.6759 12.2578 36.9728 12.832 36.4455C15.1172 34.383 16.5938 33.7736 19.3125 33.7619L20.7422 33.7502V36.8673Z" fill="#FF4C60"/>
<path d="M25.0546 31.9455C24.539 32.0393 24.164 32.5197 24.082 33.1994C24.0351 33.5393 24.0234 35.3908 24.0468 37.3244C24.082 41.3205 24.0937 41.3674 24.9491 41.6018C25.2655 41.6838 28.1835 41.7189 33.9491 41.6955C43.3241 41.6604 42.8202 41.6955 43.1835 40.9455C43.4296 40.4182 43.4062 39.9729 43.0663 39.2932C42.7851 38.7307 42.6093 38.6018 38.8124 36.0705C33.9491 32.8244 33.6796 32.6721 31.8163 32.215C31.0546 32.0275 30.3632 31.969 28.1249 31.9338C26.6132 31.9104 25.2304 31.9221 25.0546 31.9455ZM31.4882 33.9377C32.8007 34.2424 33.7616 34.7697 37.5585 37.3244C39.5624 38.6604 41.2382 39.7971 41.3085 39.8557C41.3671 39.9143 38.1913 39.9611 33.6562 39.9611H25.8984V36.8557V33.7502H28.289C30.0585 33.7502 30.9023 33.7971 31.4882 33.9377Z" fill="#FF4C60"/>
<path d="M24.5741 43.9219C24.2929 44.2266 24.3163 44.918 24.6093 45.1758C24.7968 45.3516 25.1015 45.4102 25.8984 45.4454C27.1405 45.5039 27.703 45.4219 28.0194 45.1055C28.3124 44.8125 28.3007 44.2969 28.0077 43.9688C27.7851 43.7344 27.6562 43.711 26.2616 43.711C24.9609 43.711 24.7382 43.7344 24.5741 43.9219Z" fill="#FF4C60"/>
<path d="M9.78516 47.9531C8.61328 48.3632 7.85156 49.4296 7.85156 50.6835C7.85156 51.5156 8.12109 52.1601 8.67188 52.6991C10.4883 54.4687 13.4883 53.2148 13.4883 50.6835C13.4883 48.7617 11.5547 47.332 9.78516 47.9531ZM11.3789 49.8984C11.6719 50.1562 11.7422 50.3202 11.7422 50.6835C11.7422 51.0468 11.6719 51.2109 11.3789 51.4687C10.9102 51.8906 10.4414 51.8906 9.97266 51.4921C9.69141 51.2577 9.60938 51.0937 9.60938 50.7538C9.60938 49.7226 10.6289 49.2304 11.3789 49.8984Z" fill="#FF4C60"/>
<path d="M48.3398 47.9531C47.168 48.3632 46.4062 49.4296 46.4062 50.6835C46.4062 51.5156 46.6758 52.1601 47.2266 52.6991C49.043 54.4687 52.043 53.2148 52.043 50.6835C52.043 48.7617 50.1094 47.332 48.3398 47.9531ZM49.9336 49.8984C50.2266 50.1562 50.2969 50.3202 50.2969 50.6835C50.2969 51.0468 50.2266 51.2109 49.9336 51.4687C49.4648 51.8906 48.9961 51.8906 48.5273 51.4921C48.2461 51.2577 48.1641 51.0937 48.1641 50.7538C48.1641 49.7226 49.1836 49.2304 49.9336 49.8984Z" fill="#FF4C60"/>
</svg>
